<svg width="34" height="25" viewBox="0 0 34 25" fill="none" xmlns="http://www.w3.org/2000/svg">
<path d="M9.20882 5.02597L27.0614 4.97412C27.7884 4.97412 28.4854 5.10511 29.1279 5.34525C29.422 5.45441 29.4819 5.84464 29.2341 6.03839C27.9055 7.05627 26.4407 8.22424 25.0085 9.36219C22.9584 10.9941 20.8401 12.6805 19.1684 13.8949L19.0186 14.004C18.8988 14.0914 18.7382 14.0832 18.6293 13.9904L13.8401 9.8916L13.5542 9.646C13.3146 9.44133 13.1458 9.16844 13.0669 8.8628C12.9552 8.43709 12.7837 8.03867 12.5604 7.67027C12.3372 7.33462 12.0731 7.01807 11.7681 6.71243C10.8778 5.82008 9.16526 5.0287 9.20882 5.0287V5.02597Z" fill="#8646F2" stroke="#231815" stroke-width="0.561037" stroke-miterlimit="10"/>
<path d="M31.7935 7.33468C31.3851 6.79436 30.6173 6.69612 30.0809 7.10545C28.7577 8.1206 27.2902 9.28857 25.858 10.4293C23.797 12.0693 21.6651 13.7667 19.9689 15.0002L19.8191 15.1093C19.5224 15.3249 19.1793 15.4313 18.8335 15.4313C18.4877 15.4313 18.0576 15.2949 17.7444 15.0274L17.7363 15.022L13.4916 11.3898L12.4706 10.5166C12.2555 10.331 12.0976 10.0909 12.0105 9.82344C12.005 9.80979 11.9996 9.79615 11.9969 9.77977C11.9914 9.75794 11.986 9.73338 11.9778 9.71155C11.9751 9.69791 11.9696 9.68426 11.9669 9.67062C11.9615 9.65697 11.9587 9.6406 11.9533 9.62423C11.9506 9.61058 11.9451 9.59694 11.9424 9.58329C11.937 9.56692 11.9342 9.55327 11.9288 9.5369C11.9234 9.52326 11.9206 9.50961 11.9152 9.49597C11.9097 9.48232 11.9043 9.46595 11.9016 9.44958C11.8961 9.43593 11.8934 9.42229 11.888 9.40864C11.8825 9.395 11.8771 9.37863 11.8716 9.36498C11.8662 9.35134 11.8607 9.33769 11.858 9.32405C11.8526 9.3104 11.8471 9.29403 11.8417 9.28038C11.8362 9.26674 11.8308 9.2531 11.8281 9.24218C11.8226 9.22854 11.8172 9.21216 11.8117 9.19852C11.8063 9.18487 11.8008 9.17123 11.7954 9.16031C11.7899 9.14667 11.7818 9.13029 11.7763 9.11665C11.7709 9.10301 11.7654 9.09209 11.76 9.07845C11.7545 9.0648 11.7464 9.04843 11.7409 9.03478C11.7355 9.02114 11.73 9.01022 11.7246 8.99658C11.7192 8.98294 11.711 8.96656 11.7028 8.95292C11.6974 8.93927 11.6919 8.92836 11.6865 8.91471C11.6783 8.90107 11.6729 8.88469 11.6647 8.87105C11.6593 8.86013 11.6538 8.84649 11.6456 8.83557C11.6375 8.82193 11.6293 8.80556 11.6239 8.79191C11.6184 8.781 11.613 8.76735 11.6048 8.75644C11.5966 8.74279 11.5885 8.72642 11.5803 8.71277C11.5749 8.70186 11.5694 8.69094 11.564 8.68003C11.5558 8.66365 11.5449 8.65001 11.5367 8.63364C11.5313 8.62272 11.5258 8.6118 11.5204 8.60362C11.5095 8.58724 11.5013 8.57087 11.4904 8.55177C11.485 8.54358 11.4796 8.5354 11.4768 8.52721C11.4605 8.50265 11.4469 8.47809 11.4305 8.4508C10.6246 7.18732 9.07271 6.24585 6.99258 6.24585C4.91245 6.24585 1.71875 8.88469 1.71875 11.3871V20.8591C1.71875 22.5947 3.12093 24.0001 4.85255 24.0001H29.8658C31.5974 24.0001 32.9996 22.5947 32.9996 20.8591V10.9177C32.9996 9.57238 32.5531 8.33073 31.8016 7.33468H31.7935ZM28.7114 21.7132C27.8619 21.7132 27.1186 21.1347 26.7075 20.2669C26.2964 21.1347 25.5531 21.7132 24.7036 21.7132C23.4103 21.7132 22.3621 20.3679 22.3621 18.7087C22.3621 17.0496 23.4103 15.7042 24.7036 15.7042C25.9969 15.7042 26.2964 16.2827 26.7075 17.1505C27.1186 16.2827 27.8619 15.7042 28.7114 15.7042C30.0047 15.7042 31.0529 17.0496 31.0529 18.7087C31.0529 20.3679 30.0047 21.7132 28.7114 21.7132Z" fill="#8646F2" stroke="#231815" stroke-width="0.561037" stroke-miterlimit="10"/>
<path d="M28.6354 21.5957C29.9286 21.5957 30.977 20.2505 30.977 18.5912C30.977 16.9318 29.9286 15.5867 28.6354 15.5867C27.3423 15.5867 26.2939 16.9318 26.2939 18.5912C26.2939 20.2505 27.3423 21.5957 28.6354 21.5957Z" fill="white"/>
<path d="M28.6353 21.8688C27.9246 21.8688 27.2603 21.5195 26.7648 20.8836C26.2856 20.2696 26.0215 19.4537 26.0215 18.5914C26.0215 17.729 26.2856 16.9131 26.7648 16.2991C27.2603 15.6633 27.9246 15.314 28.6353 15.314C29.3459 15.314 30.0102 15.6633 30.5057 16.2991C30.9849 16.9131 31.249 17.729 31.249 18.5914C31.249 19.4537 30.9849 20.2696 30.5057 20.8836C30.0102 21.5195 29.3459 21.8688 28.6353 21.8688ZM28.6353 15.8597C27.4945 15.8597 26.566 17.085 26.566 18.5914C26.566 20.0977 27.4945 21.323 28.6353 21.323C29.7761 21.323 30.7045 20.0977 30.7045 18.5914C30.7045 17.085 29.7761 15.8597 28.6353 15.8597Z" fill="#231815"/>
<path d="M30.7052 18.2966C30.7052 19.2217 30.0599 19.9694 29.2649 19.9694C28.4698 19.9694 28.1894 19.5737 27.9607 19.0034C28.2166 18.9952 28.4181 18.8178 28.4181 18.5995C28.4181 18.3812 28.2057 18.1956 27.9416 18.1956C27.6775 18.1956 27.8627 18.2011 27.8273 18.2093C27.8654 17.3251 28.4943 16.6238 29.2649 16.6238C30.0354 16.6238 30.7052 17.3742 30.7052 18.2966Z" fill="#231815"/>
<path d="M30.5957 17.7292H26.6777C26.9064 16.654 27.696 15.8599 28.6381 15.8599C29.5801 15.8599 30.3697 16.654 30.5984 17.7292H30.5957Z" fill="#8646F2"/>
<path d="M24.6413 21.5576C25.9345 21.5576 26.9828 20.2124 26.9828 18.5531C26.9828 16.8938 25.9345 15.5486 24.6413 15.5486C23.3481 15.5486 22.2998 16.8938 22.2998 18.5531C22.2998 20.2124 23.3481 21.5576 24.6413 21.5576Z" fill="white"/>
<path d="M24.6411 21.8307C23.9305 21.8307 23.2662 21.4814 22.7706 20.8456C22.2914 20.2316 22.0273 19.4156 22.0273 18.5533C22.0273 17.691 22.2914 16.875 22.7706 16.261C23.2662 15.6252 23.9305 15.2759 24.6411 15.2759C25.3517 15.2759 26.0161 15.6252 26.5116 16.261C26.9908 16.875 27.2549 17.691 27.2549 18.5533C27.2549 19.4156 26.9908 20.2316 26.5116 20.8456C26.0161 21.4814 25.3517 21.8307 24.6411 21.8307ZM24.6411 15.8217C23.5003 15.8217 22.5719 17.0469 22.5719 18.5533C22.5719 20.0596 23.5003 21.2849 24.6411 21.2849C25.7819 21.2849 26.7104 20.0596 26.7104 18.5533C26.7104 17.0469 25.7819 15.8217 24.6411 15.8217Z" fill="#231815"/>
<path d="M26.711 18.2966C26.711 19.2217 26.0657 19.9694 25.2707 19.9694C24.4757 19.9694 24.1953 19.5737 23.9666 19.0034C24.2225 18.9952 24.424 18.8178 24.424 18.5995C24.424 18.3812 24.2116 18.1956 23.9475 18.1956C23.6834 18.1956 23.8685 18.2011 23.8331 18.2093C23.8713 17.3251 24.5002 16.6238 25.2707 16.6238C26.0412 16.6238 26.711 17.3742 26.711 18.2966Z" fill="#231815"/>
<path d="M26.5986 17.6908H22.6807C22.9094 16.6156 23.6989 15.8215 24.641 15.8215C25.583 15.8215 26.3726 16.6156 26.6013 17.6908H26.5986Z" fill="#8646F2"/>
<path d="M7.11548 1.57664C6.88133 0.381387 5.10342 -0.276277 3.14581 0.111226C1.18821 0.496001 -0.208527 1.77858 0.0256237 2.97384C0.202598 3.88256 1.21271 4.69305 2.57677 4.75854L5.32124 4.97412C5.40836 4.98777 5.47098 4.89498 5.42742 4.81857L5.21233 4.45836C5.11431 4.29463 5.17693 4.07904 5.35118 3.99718C6.55461 3.41865 7.29246 2.47445 7.1182 1.57937L7.11548 1.57664Z" fill="#231815"/>
<path d="M2.17888 2.07344L1.81949 2.15257L1.71875 1.69685L2.98752 1.41577L3.08826 1.8715L2.72886 1.95064L3.02836 3.30963L2.4811 3.4297L2.18161 2.07071L2.17888 2.07344Z" fill="white"/>
<path d="M3.6113 2.65466L3.43432 1.8469C3.35537 1.48669 3.51873 1.27656 3.92713 1.18651L4.13133 1.14285C4.53701 1.05279 4.77388 1.17559 4.85284 1.53581L5.02981 2.34356C5.10877 2.70378 4.94541 2.9139 4.53701 3.00396L4.33281 3.04762C3.92713 3.13767 3.69026 3.01487 3.6113 2.65466ZM4.488 2.51548L4.28924 1.60403L3.97886 1.67225L4.17761 2.58371L4.488 2.51548Z" fill="white"/>
<path d="M5.43555 2.20454L5.97736 2.08447L6.09716 2.63298L5.55534 2.75305L5.43555 2.20454Z" fill="white"/>
</svg>
