<svg width="153" height="29" viewBox="0 0 153 29" fill="none" xmlns="http://www.w3.org/2000/svg">
<path d="M144.393 27.9833V19.75H152.559V27.9833H144.393Z" fill="#303237"/>
<path d="M134.1 5.81665C139.466 5.81665 142.066 8.28332 142.066 12.75V21.4167C142.066 25.8833 139.466 28.35 134.1 28.35H131.283C125.916 28.35 123.316 25.8833 123.316 21.4167V12.75C123.316 8.28332 125.916 5.81665 131.283 5.81665H134.1ZM134.15 21.8833V12.2833H131.233V21.8833H134.15Z" fill="#303237"/>
<path d="M110.568 27.9999V7.59994H105.151V0.766602H124.218V7.59994H118.801V27.9999H110.568Z" fill="#303237"/>
<path d="M89.6803 5.81665C95.047 5.81665 97.647 8.28332 97.647 12.75V13.9167H89.7303V11.3167H86.8136V13.9167L91.647 14.9167C95.447 15.7 97.647 17.2833 97.647 20.9667V21.4167C97.647 25.8833 95.047 28.35 89.6803 28.35H86.8636C81.497 28.35 78.897 25.8833 78.897 21.4167V19.9833H86.8136V22.85H89.7303V19.9833L84.897 18.9833C81.097 18.2 78.897 16.6167 78.897 12.9333V12.75C78.897 8.28332 81.497 5.81665 86.8636 5.81665H89.6803Z" fill="#303237"/>
<path d="M48.8966 28.0001L45.3633 6.16675H53.1299L54.3966 16.5334C54.5799 18.0834 54.8299 20.0334 55.1299 22.4001C55.3966 20.0167 55.5966 18.3501 55.8133 16.5334L57.0966 6.16675H65.7633L67.0299 16.5334C67.2633 18.3501 67.4799 20.0334 67.7133 22.4001C68.0299 20.0501 68.2966 17.9834 68.4633 16.5334L69.7299 6.16675H77.4799L73.9633 28.0001H62.7466L62.2966 22.6167C61.9966 20.2334 61.6633 17.2834 61.4299 14.8167C61.1966 17.2834 60.8466 20.2334 60.5633 22.6167L60.0966 28.0001H48.8966Z" fill="#303237"/>
<path d="M33.0799 28.35C27.7133 28.35 25.1133 25.8833 25.1133 21.4167V12.75C25.1133 8.28332 27.7133 5.81665 33.0799 5.81665H35.8966C41.2633 5.81665 43.8633 8.28332 43.8633 12.75V18.8833H32.9466V22.6833H36.0299V20.2667H43.8633V21.4167C43.8633 25.8833 41.2633 28.35 35.8966 28.35H33.0799ZM32.9466 14.8H36.0299V11.4833H32.9466V14.8Z" fill="#303237"/>
<path d="M0.646973 27.9999V0.766602H9.73031L12.297 7.94993C13.197 10.1999 13.9136 12.0333 14.6636 14.3833C14.5136 11.9833 14.447 10.1833 14.4636 8.6666V0.766602H22.2136V27.9999H13.1303L10.5636 20.8166C9.64697 18.5666 8.94697 16.7333 8.19697 14.3833C8.34697 16.7999 8.39697 18.5999 8.39697 20.1166V27.9999H0.646973Z" fill="#303237"/>
</svg>
