<svg width="20" height="14" viewBox="0 0 20 14" fill="none" xmlns="http://www.w3.org/2000/svg">
<path fill-rule="evenodd" clip-rule="evenodd" d="M19.615 2.03307C19.615 1.40002 19.1375 0.886841 18.5484 0.886841H17.4817C16.8926 0.886841 16.415 1.40002 16.415 2.03307V11.967C16.415 12.6001 16.8926 13.1133 17.4817 13.1133H18.5484C19.1375 13.1133 19.615 12.6001 19.615 11.967V2.03307ZM12.1809 3.33212H13.2476C13.8367 3.33212 14.3143 3.85762 14.3143 4.50586V11.9395C14.3143 12.5878 13.8367 13.1133 13.2476 13.1133H12.1809C11.5918 13.1133 11.1143 12.5878 11.1143 11.9395V4.50586C11.1143 3.85762 11.5918 3.33212 12.1809 3.33212ZM7.84915 5.98117H6.78249C6.19338 5.98117 5.71582 6.51336 5.71582 7.16985V11.9246C5.71582 12.5811 6.19338 13.1132 6.78249 13.1132H7.84915C8.43826 13.1132 8.91582 12.5811 8.91582 11.9246V7.16985C8.91582 6.51336 8.43826 5.98117 7.84915 5.98117ZM2.54837 8.42646H1.48171C0.892602 8.42646 0.415039 8.95105 0.415039 9.59816V11.9416C0.415039 12.5887 0.892602 13.1133 1.48171 13.1133H2.54837C3.13748 13.1133 3.61504 12.5887 3.61504 11.9416V9.59816C3.61504 8.95105 3.13748 8.42646 2.54837 8.42646Z" fill="black"/>
</svg>
