<svg width="202" height="199" viewBox="0 0 202 199" fill="none" xmlns="http://www.w3.org/2000/svg">
<path d="M192.588 47.3022C190.167 44.1056 185.614 43.5244 182.433 45.9461C174.587 51.9518 165.885 58.8616 157.394 65.61C145.172 75.3127 132.531 85.3546 122.473 92.6518L121.585 93.2976C119.826 94.573 117.791 95.2026 115.741 95.2026C113.691 95.2026 111.14 94.3954 109.283 92.8133L109.235 92.781L84.0657 71.2928L78.0115 66.1266C76.7361 65.0288 75.7998 63.6081 75.2831 62.0259C75.2508 61.9452 75.2186 61.8645 75.2024 61.7676C75.1701 61.6384 75.1378 61.4931 75.0894 61.364C75.0733 61.2833 75.041 61.2025 75.0248 61.1218C74.9925 61.0411 74.9764 60.9442 74.9441 60.8474C74.928 60.7666 74.8957 60.6859 74.8795 60.6052C74.8472 60.5083 74.8311 60.4276 74.7988 60.3307C74.7665 60.25 74.7504 60.1693 74.7181 60.0886C74.6858 60.0079 74.6535 59.911 74.6374 59.8141C74.6051 59.7334 74.5889 59.6527 74.5566 59.572C74.5243 59.4912 74.4921 59.3944 74.4598 59.3136C74.4275 59.2329 74.3952 59.1522 74.379 59.0715C74.3468 58.9908 74.3145 58.8939 74.2822 58.8132C74.2499 58.7324 74.2176 58.6517 74.2015 58.5871C74.1692 58.5064 74.1369 58.4096 74.1046 58.3288C74.0723 58.2481 74.04 58.1674 74.0077 58.1028C73.9754 58.0221 73.927 57.9252 73.8947 57.8445C73.8624 57.7638 73.8301 57.6992 73.7978 57.6185C73.7656 57.5378 73.7171 57.4409 73.6848 57.3602C73.6525 57.2794 73.6203 57.2149 73.588 57.1342C73.5557 57.0534 73.5073 56.9566 73.4588 56.8758C73.4265 56.7951 73.3942 56.7305 73.3619 56.6498C73.3135 56.5691 73.2812 56.4722 73.2328 56.3915C73.2005 56.3269 73.1682 56.2462 73.1198 56.1816C73.0713 56.1009 73.0229 56.004 72.9906 55.9233C72.9583 55.8587 72.926 55.778 72.8776 55.7134C72.8292 55.6327 72.7808 55.5359 72.7323 55.4551C72.7 55.3906 72.6677 55.326 72.6354 55.2614C72.587 55.1645 72.5224 55.0838 72.474 54.9869C72.4417 54.9224 72.4094 54.8578 72.3771 54.8094C72.3126 54.7125 72.2641 54.6156 72.1996 54.5026C72.1673 54.4542 72.135 54.4057 72.1188 54.3573C72.022 54.212 71.9412 54.0667 71.8444 53.9053C67.0656 46.4304 57.8633 40.8606 45.529 40.8606C33.1947 40.8606 14.2573 56.4722 14.2573 71.2766V127.314C14.2573 137.582 22.5717 145.896 32.8395 145.896H181.158C191.426 145.896 199.74 137.582 199.74 127.314V68.4998C199.74 60.5406 197.093 53.1949 192.637 47.3022H192.588ZM174.313 132.367C169.276 132.367 164.868 128.944 162.431 123.81C159.993 128.944 155.585 132.367 150.548 132.367C142.88 132.367 136.664 124.408 136.664 114.592C136.664 104.776 142.88 96.8171 150.548 96.8171C158.217 96.8171 159.993 100.24 162.431 105.374C164.868 100.24 169.276 96.8171 174.313 96.8171C181.981 96.8171 188.197 104.776 188.197 114.592C188.197 124.408 181.981 132.367 174.313 132.367Z" fill="#C6A4FF" stroke="#231815" stroke-width="3.22888" stroke-miterlimit="10"/>
<path d="M173.861 131.673C181.529 131.673 187.745 123.715 187.745 113.898C187.745 104.081 181.529 96.123 173.861 96.123C166.193 96.123 159.977 104.081 159.977 113.898C159.977 123.715 166.193 131.673 173.861 131.673Z" fill="white"/>
<path d="M173.861 133.287C169.647 133.287 165.708 131.221 162.77 127.459C159.928 123.827 158.362 119 158.362 113.898C158.362 108.796 159.928 103.969 162.77 100.337C165.708 96.575 169.647 94.5085 173.861 94.5085C178.075 94.5085 182.014 96.575 184.952 100.337C187.794 103.969 189.36 108.796 189.36 113.898C189.36 119 187.794 123.827 184.952 127.459C182.014 131.221 178.075 133.287 173.861 133.287ZM173.861 97.7374C167.096 97.7374 161.591 104.986 161.591 113.898C161.591 122.81 167.096 130.058 173.861 130.058C180.625 130.058 186.131 122.81 186.131 113.898C186.131 104.986 180.625 97.7374 173.861 97.7374Z" fill="#231815"/>
<path d="M186.131 112.154C186.131 117.627 182.304 122.051 177.59 122.051C172.876 122.051 171.213 119.71 169.857 116.336C171.375 116.287 172.569 115.238 172.569 113.946C172.569 112.655 171.31 111.557 169.744 111.557C168.178 111.557 169.276 111.589 169.066 111.638C169.292 106.407 173.021 102.258 177.59 102.258C182.159 102.258 186.131 106.698 186.131 112.154Z" fill="#231815"/>
<path d="M185.485 108.796H162.253C163.609 102.435 168.291 97.7373 173.877 97.7373C179.463 97.7373 184.145 102.435 185.501 108.796H185.485Z" fill="#C6A4FF"/>
<path d="M150.177 131.447C157.845 131.447 164.061 123.489 164.061 113.672C164.061 103.855 157.845 95.897 150.177 95.897C142.509 95.897 136.293 103.855 136.293 113.672C136.293 123.489 142.509 131.447 150.177 131.447Z" fill="white"/>
<path d="M150.177 133.061C145.964 133.061 142.024 130.995 139.086 127.233C136.245 123.601 134.679 118.774 134.679 113.672C134.679 108.57 136.245 103.743 139.086 100.111C142.024 96.3489 145.964 94.2825 150.177 94.2825C154.391 94.2825 158.33 96.3489 161.269 100.111C164.11 103.743 165.676 108.57 165.676 113.672C165.676 118.774 164.11 123.601 161.269 127.233C158.33 130.995 154.391 133.061 150.177 133.061ZM150.177 97.5113C143.413 97.5113 137.908 104.76 137.908 113.672C137.908 122.584 143.413 129.832 150.177 129.832C156.942 129.832 162.447 122.584 162.447 113.672C162.447 104.76 156.942 97.5113 150.177 97.5113Z" fill="#231815"/>
<path d="M162.447 112.154C162.447 117.627 158.62 122.051 153.906 122.051C149.192 122.051 147.529 119.71 146.173 116.336C147.691 116.287 148.885 115.238 148.885 113.946C148.885 112.655 147.626 111.557 146.06 111.557C144.494 111.557 145.592 111.589 145.382 111.638C145.608 106.407 149.337 102.258 153.906 102.258C158.475 102.258 162.447 106.698 162.447 112.154Z" fill="#231815"/>
<path d="M161.785 108.57H138.553C139.909 102.209 144.591 97.5112 150.177 97.5112C155.763 97.5112 160.445 102.209 161.801 108.57H161.785Z" fill="#C6A4FF"/>
<path d="M121.343 145.993C120.794 157.859 120.245 169.725 119.713 181.591C130.707 174.617 137.697 174.746 145.98 181.301C153.616 187.339 154.601 194.265 154.94 196.573C139.748 196.573 127.962 196.573 112.771 196.573L115.757 145.977H121.343V145.993Z" fill="#C6A4FF" stroke="#231815" stroke-width="3.22888" stroke-miterlimit="10"/>
<path d="M104.505 145.993L106.523 181.591C95.6737 172.55 81.1599 171.178 70.9728 177.733C61.5768 183.771 59.3973 194.265 58.9775 196.573H115.047C113.82 179.702 114.078 163.623 116.29 145.977H104.505V145.993Z" fill="#C6A4FF" stroke="#231815" stroke-width="3.22888" stroke-miterlimit="10"/>
<path d="M51.7955 11.4078C50.0911 2.75953 37.1492 -1.999 22.8992 0.804776C8.64928 3.58881 -1.51792 12.8689 0.186522 21.5172C1.47476 28.0923 8.82766 33.9565 18.757 34.4304L38.7347 35.9903C39.3689 36.089 39.8248 35.4177 39.5076 34.8648L37.9419 32.2585C37.2284 31.0738 37.6843 29.5139 38.9527 28.9216C47.7128 24.7356 53.0837 17.9039 51.8153 11.4276L51.7955 11.4078Z" fill="#231815"/>
<path d="M16.9206 17.1397L14.8426 17.805L13.9958 15.1766L21.3307 12.8176L22.1775 15.446L20.0995 16.1114L22.6193 23.9501L19.4549 24.9607L16.9351 17.1221L16.9206 17.1397Z" fill="white"/>
<path d="M25.6966 19.7694L24.205 15.1097C23.5396 13.0317 24.3878 11.7035 26.749 10.9466L27.9304 10.5763C30.2756 9.82092 31.7419 10.4129 32.4073 12.4909L33.8989 17.1506C34.5643 19.2285 33.7161 20.5567 31.3548 21.3136L30.1735 21.684C27.8283 22.4393 26.362 21.8473 25.6966 19.7694ZM30.7953 18.4636L29.1178 13.2052L27.3231 13.7791L29.0007 19.0375L30.7953 18.4636Z" fill="white"/>
<path d="M36.2168 16.1059L39.3491 15.0983L40.3597 18.2627L37.2274 19.2703L36.2168 16.1059Z" fill="white"/>
<path d="M61.0047 36.2965L163.334 36C167.501 36 171.496 36.7491 175.179 38.1224C176.864 38.7467 177.208 40.9783 175.787 42.0864C168.172 47.9074 159.776 54.5869 151.567 61.0946C139.815 70.427 127.674 80.0716 118.092 87.0163L117.233 87.6406C116.547 88.14 115.626 88.0931 115.002 87.5625L87.5506 64.1222L85.912 62.7176C84.5387 61.5472 83.5711 59.9866 83.1185 58.2387C82.4787 55.8041 81.4955 53.5256 80.2158 51.4188C78.9361 49.4993 77.4223 47.689 75.6744 45.9411C70.5712 40.8379 60.755 36.3121 61.0047 36.3121V36.2965Z" fill="#C6A4FF" stroke="#231815" stroke-width="3.12122" stroke-miterlimit="10"/>
</svg>
