<svg width="99" height="141" viewBox="0 0 99 141" fill="none" xmlns="http://www.w3.org/2000/svg">
<path d="M6.49897 29.2788C16.6426 23.4153 26.8302 17.5519 36.9739 11.6884C38.4669 10.8133 40.3551 11.6884 40.6186 13.395C43.6485 31.2041 46.7224 49.0131 49.7523 66.7785C50.2353 69.5789 54.3191 69.4477 54.6265 66.6035L60.4229 11.9072C60.5546 10.7258 61.4768 9.8069 62.6624 9.71938C72.2352 8.888 81.7641 8.05662 91.3369 7.22524C93.1373 7.05021 94.4986 8.84425 93.8399 10.507C87.824 26.4346 81.8959 45.7314 77.6364 67.9599C73.6404 88.832 72.0157 107.779 71.6204 123.925C71.6204 125.107 70.6983 126.113 69.5127 126.288C62.4428 127.294 55.3291 128.257 48.2593 129.263C46.8102 129.482 45.4928 128.345 45.4489 126.901C45.2293 117.755 43.9998 106.16 40.0038 93.3827C38.8621 89.6634 37.5887 86.2066 36.2713 83.0123C35.2613 80.6057 31.7045 81.1745 31.5288 83.7999C30.5627 99.9463 29.5528 116.049 28.5867 132.195C28.5428 133.245 27.7963 134.12 26.8302 134.383C19.2774 136.571 11.6806 138.759 4.12773 140.903C2.63472 141.34 1.0978 140.246 1.00998 138.715C-0.263472 117.93 -0.483032 94.8267 1.22954 69.7977C2.15169 56.1455 3.55687 43.2372 5.31335 31.0728C5.40118 30.3289 5.88421 29.6726 6.49897 29.2788Z" fill="#FF5B5C"/>
<path d="M10.7138 23.0654C20.8575 17.2019 31.0451 11.3385 41.1887 5.47507C42.6817 4.59993 44.57 5.47507 44.8334 7.18159C47.8634 24.9907 50.9372 42.7998 53.9671 60.5651C54.4502 63.3655 58.534 63.2343 58.8413 60.3901L64.6377 5.69385C64.7695 4.51242 65.6916 3.59352 66.8772 3.50601C76.4501 2.67462 85.979 1.84324 95.5518 1.01186C97.3522 0.836832 98.7134 2.63087 98.0548 4.29363C92.0388 20.2212 86.1107 39.518 81.8512 61.7465C77.8552 82.6186 76.2305 101.565 75.8353 117.712C75.8353 118.893 74.9131 119.9 73.7275 120.075C66.6577 121.081 59.5439 122.044 52.4741 123.05C51.025 123.269 49.7077 122.131 49.6637 120.687C49.4442 111.542 48.2147 99.9464 44.2187 87.1693C43.077 83.45 41.8035 79.9932 40.4861 76.7989C39.4762 74.3923 35.9193 74.9611 35.7436 77.5866C34.7776 93.7329 33.7676 109.835 32.8015 125.982C32.7576 127.032 32.0111 127.907 31.0451 128.17C23.4922 130.357 15.8954 132.545 8.34257 134.689C6.84956 135.127 5.31264 134.033 5.22482 132.502C3.95137 111.717 3.73181 88.6133 5.44438 63.5843C6.36653 49.9322 7.77172 37.0238 9.52819 24.8594C9.61602 24.1155 10.099 23.4592 10.7138 23.0654Z" stroke="#030000" stroke-width="0.87824" stroke-miterlimit="10"/>
<path d="M68.2827 69.0977C72.939 69.0977 76.7138 64.6702 76.7138 59.2087C76.7138 53.7471 72.939 49.3196 68.2827 49.3196C63.6263 49.3196 59.8516 53.7471 59.8516 59.2087C59.8516 64.6702 63.6263 69.0977 68.2827 69.0977Z" fill="white" stroke="#211815" stroke-width="1.31736" stroke-miterlimit="10"/>
<path d="M54.6704 69.0977C59.3267 69.0977 63.1015 64.6702 63.1015 59.2087C63.1015 53.7471 59.3267 49.3196 54.6704 49.3196C50.014 49.3196 46.2393 53.7471 46.2393 59.2087C46.2393 64.6702 50.014 69.0977 54.6704 69.0977Z" fill="white" stroke="#211815" stroke-width="1.31736" stroke-miterlimit="10"/>
<path d="M76.7579 59.2087C76.7579 63.1031 74.0353 66.2536 70.698 66.2536C67.3607 66.2536 66.1751 64.5908 65.209 62.1842C66.2629 62.1842 67.1412 61.3965 67.1412 60.4776C67.1412 59.5587 66.2629 58.7711 65.1212 58.7711C63.9795 58.7711 64.7699 58.7711 64.6382 58.8149C64.8138 55.0955 67.4486 52.1638 70.698 52.1638C73.9475 52.1638 76.7579 55.3143 76.7579 59.2087Z" fill="#211815"/>
<path d="M63.0577 59.2087C63.0577 63.1031 60.3352 66.2536 56.9979 66.2536C53.6605 66.2536 52.4749 64.5908 51.5089 62.1842C52.5627 62.1842 53.441 61.3965 53.441 60.4776C53.441 59.5587 52.5627 58.7711 51.421 58.7711C50.2793 58.7711 51.0697 58.7711 50.938 58.8149C51.1136 55.0955 53.7484 52.1638 56.9979 52.1638C60.2473 52.1638 63.0577 55.3143 63.0577 59.2087Z" fill="#211815"/>
<path d="M42.9019 74.9611C44.2193 80.4307 48.7861 83.625 55.5486 83.8875C66.3948 84.3251 69.8639 79.2493 70.5226 76.9302C71.1373 74.7423 69.6882 70.4979 67.0535 70.5854C63.0575 70.7604 61.828 75.2236 56.6903 74.3922C51.7282 73.5609 49.2692 68.8789 46.3271 69.6227C43.9997 70.1916 42.1993 72.1169 42.9019 74.9611Z" fill="white" stroke="#211815" stroke-width="1.31736" stroke-miterlimit="10"/>
<path d="M48.3034 69.8416L47.9521 81.831" stroke="#211815" stroke-width="0.87824" stroke-miterlimit="10"/>
<path d="M53.4851 72.8169L53.1338 83.6249" stroke="#211815" stroke-width="0.87824" stroke-miterlimit="10"/>
<path d="M58.1834 74.6548L57.876 84.2376" stroke="#211815" stroke-width="0.87824" stroke-miterlimit="10"/>
<path d="M64.155 71.6355L63.8037 82.881" stroke="#211815" stroke-width="0.87824" stroke-miterlimit="10"/>
<path d="M21.5163 83.625C21.1211 84.3689 16.203 90.4511 20.9016 98.7212C25.8197 107.341 42.5063 111.586 55.7238 101.565" stroke="#030000" stroke-width="0.87824" stroke-miterlimit="10"/>
<path d="M81.1493 76.7114C83.0375 77.4991 88.0434 79.9057 88.7021 83.8876C89.5804 89.1384 82.8179 96.5771 70.6543 98.8524" stroke="#030000" stroke-width="0.87824" stroke-miterlimit="10"/>
<path d="M71.9575 100.751C72.8186 100.255 72.6025 98.2757 71.4747 96.3293C70.347 94.3829 68.7348 93.2067 67.8736 93.7021C67.0125 94.1975 67.2287 96.177 68.3564 98.1233C69.4841 100.07 71.0963 101.246 71.9575 100.751Z" fill="#030000"/>
<path d="M91.4684 93.7769C92.0393 93.8644 92.2149 94.6083 91.7758 94.9146C89.185 96.8836 86.7698 100.165 85.189 104.322C83.6082 108.392 83.213 112.417 83.7838 115.568C83.8716 116.137 83.3008 116.574 82.8178 116.268L69.3807 108.217L69.249 108.173C66.8777 107.254 66.3947 102.572 68.1512 97.8901C69.8637 93.4268 73.1132 90.3201 75.4844 90.8452H75.5723H75.6162H75.7918L91.4684 93.7331V93.7769Z" fill="#FD808A"/>
<path d="M92.892 106.186C95.1311 100.313 95.4392 94.9806 93.5802 94.2769C91.7211 93.5732 88.3989 97.7644 86.1598 103.638C83.9206 109.512 83.6125 114.844 85.4716 115.548C87.3306 116.251 90.6528 112.06 92.892 106.186Z" fill="#FD808A"/>
<path d="M94.9457 105.671C97.1848 99.797 97.4929 94.465 95.6339 93.7613C93.7748 93.0576 90.4526 97.2487 88.2135 103.122C85.9744 108.996 85.6662 114.328 87.5253 115.032C89.3843 115.736 92.7066 111.545 94.9457 105.671Z" stroke="#030000" stroke-width="0.87824" stroke-miterlimit="10"/>
<path d="M67.5807 105.766L51.3772 98.4151C51.1137 98.2838 50.8942 98.065 50.7624 97.7587C50.455 97.0149 50.0159 95.4834 50.5868 93.6018C51.1137 91.9391 52.1237 90.9327 52.7824 90.4513C53.4411 89.97 53.485 90.1013 53.8363 90.1888L71.0498 93.383C70.2593 94.3019 68.8541 96.271 68.0198 99.0714C67.1416 102.091 67.4051 104.585 67.5807 105.766Z" fill="#FD808A"/>
<path d="M51.3329 97.4962L41.2771 93.1205C41.1014 93.0329 40.9697 92.9454 40.8819 92.7704C40.6623 92.3766 40.311 91.6327 40.5745 90.7576C40.794 89.97 41.3649 89.5324 41.7601 89.3574C42.1553 89.1823 42.1553 89.2261 42.3749 89.2698L52.8259 91.6765C52.3868 92.0703 51.6403 92.9454 51.289 94.3019C50.8938 95.7021 51.2012 96.9273 51.3768 97.5399L51.3329 97.4962Z" fill="#FD808A"/>
<path d="M91.1178 92.1578C91.6887 92.2453 91.8643 92.9891 91.4252 93.2954C88.8344 95.2645 86.4193 98.5463 84.8384 102.703C83.2576 106.773 82.8624 110.798 83.4332 113.949C83.5211 114.518 82.9502 114.955 82.4672 114.649L69.0301 106.598L68.8984 106.554C66.5271 105.635 66.0441 100.953 67.8006 96.2709C69.5131 91.8077 72.7626 88.701 75.1339 89.226H75.2217H75.2656H75.4413L91.1178 92.114V92.1578Z" stroke="#030000" stroke-width="0.87824" stroke-miterlimit="10"/>
<path d="M66.7454 103.36L51.0688 96.1835C50.8054 96.0523 50.5858 95.8335 50.4541 95.5272C50.1467 94.7833 49.7076 93.2081 50.3223 91.2828C50.8493 89.5762 51.9032 88.5261 52.5618 88.0447C53.2205 87.5634 53.2644 87.6947 53.6157 87.7384L70.8731 90.8452C70.0827 91.8078 68.6336 93.8207 67.7993 96.7086C66.8771 99.8154 66.6137 102.134 66.7893 103.316L66.7454 103.36Z" stroke="#030000" stroke-width="0.87824" stroke-miterlimit="10"/>
<path d="M49.7518 94.258L41.9355 90.8012C41.8037 90.7575 41.7159 90.6262 41.6281 90.5387C41.4524 90.2324 41.2329 89.5323 41.4524 88.7884C41.672 88.0883 42.1111 87.6945 42.4185 87.4757C42.7259 87.2569 42.7259 87.3444 42.9015 87.3882L51.1131 89.0947C50.7618 89.4885 50.147 90.2762 49.7957 91.4576C49.4444 92.7265 49.6201 93.7767 49.7518 94.3018V94.258Z" stroke="#030000" stroke-width="0.87824" stroke-miterlimit="10"/>
<path d="M58.3077 101.242C59.4354 99.2961 59.6516 97.3167 58.7904 96.8213C57.9293 96.3259 56.3171 97.5021 55.1894 99.4485C54.0617 101.395 53.8455 103.374 54.7066 103.87C55.5678 104.365 57.18 103.189 58.3077 101.242Z" fill="#030000"/>
</svg>
