<svg width="87" height="141" viewBox="0 0 87 141" fill="none" xmlns="http://www.w3.org/2000/svg">
<path d="M12.3076 15.8718L78.9856 4.32626C82.713 3.67971 86.1642 6.45066 86.3483 10.2838L86.9925 23.9075C87.1766 27.6483 84.0935 30.7425 80.3661 30.5116C76.6388 30.2807 73.2796 30.5116 69.0461 31.5276C66.3771 32.1742 64.0302 33.0516 62.0515 33.9753C60.0728 34.8989 58.6463 36.8847 58.4162 39.1015C57.0817 52.5405 56.0234 66.7647 55.4251 81.7277C54.8729 95.7671 54.7809 109.16 55.011 121.906C55.2411 134.653 53.7685 126.478 51.6978 127.587L28.2753 140.241C24.2259 142.411 19.3481 139.686 18.98 135.114C17.7836 118.35 17.8756 98.4457 21.1888 76.3706C22.4773 67.596 24.1799 59.4217 26.0666 51.8016C27.9532 44.1815 23.0755 42.9808 18.4738 44.1354C13.8722 45.2899 16.4491 44.6434 15.3907 45.0128C14.7925 45.1975 14.2403 45.3823 13.6421 45.6132C9.31651 47.1372 4.8529 43.5812 5.31306 39.0091C5.77323 34.4371 6.46347 27.3712 7.06169 21.5061C7.65991 15.6409 9.45456 16.3798 12.2616 15.918L12.3076 15.8718Z" fill="#4C86FF"/>
<path d="M8.02732 12.6392L74.7054 1.09359C78.4327 0.447042 81.884 3.21799 82.068 7.05112L82.7123 20.6749C82.8963 24.4156 79.8132 27.5099 76.0859 27.2789C72.3585 27.048 68.9993 27.2789 64.7658 28.295C62.0968 28.9415 59.75 29.819 57.7713 30.7426C55.7926 31.6663 54.366 33.6521 54.136 35.8688C52.8015 49.3079 51.7431 63.532 51.1449 78.495C50.5927 92.5344 50.5006 105.927 50.7307 118.674C50.9608 131.42 49.4883 123.246 47.4175 124.354L23.9951 137.008C19.9456 139.179 15.0679 136.454 14.6997 131.882C13.5033 115.118 13.5953 95.213 16.9085 73.1379C18.197 64.3633 19.8996 56.189 21.7863 48.5689C23.673 40.9489 18.7952 39.7481 14.1935 40.9027C9.59188 42.0573 12.1688 41.4107 11.1104 41.7802C10.5122 41.9649 9.96001 42.1496 9.3618 42.3805C5.03624 43.9046 0.572625 40.3485 1.03279 35.7765C1.49296 31.2044 2.18321 24.1385 2.78143 18.2734C3.37965 12.4083 5.17429 13.1472 7.9813 12.6853L8.02732 12.6392Z" stroke="#030000" stroke-width="0.758694" stroke-miterlimit="10"/>
<path d="M32.4633 56.0043C37.1649 56.0043 40.9763 51.5175 40.9763 45.9827C40.9763 40.448 37.1649 35.9612 32.4633 35.9612C27.7616 35.9612 23.9502 40.448 23.9502 45.9827C23.9502 51.5175 27.7616 56.0043 32.4633 56.0043Z" fill="white" stroke="#211815" stroke-width="0.758694" stroke-miterlimit="10"/>
<path d="M27.4932 44.828C27.4932 41.3181 30.0241 38.4548 33.1532 38.4548C36.2823 38.4548 37.3867 39.9326 38.3071 42.1032C37.2947 42.1032 36.5124 42.7959 36.5124 43.6272C36.5124 44.4585 37.3407 45.1513 38.3991 45.1513C39.4575 45.1513 38.7212 45.1512 38.8593 45.1051C38.7212 48.4764 36.2363 51.1088 33.1992 51.1088C30.1621 51.1088 27.5392 48.2455 27.5392 44.7356L27.4932 44.828Z" fill="#211815"/>
<path d="M40.1923 43.3504C40.1923 43.3504 37.7074 41.5954 32.6916 41.6416C27.6758 41.6878 24.6387 43.3504 24.6387 43.3504C25.559 39.2863 28.6881 36.2383 32.4155 36.2383C36.1428 36.2383 39.2719 39.2401 40.1923 43.3504Z" fill="#6387D2"/>
<path d="M47.3256 56.0043C52.0272 56.0043 55.8386 51.5175 55.8386 45.9827C55.8386 40.448 52.0272 35.9612 47.3256 35.9612C42.6239 35.9612 38.8125 40.448 38.8125 45.9827C38.8125 51.5175 42.6239 56.0043 47.3256 56.0043Z" fill="white" stroke="#211815" stroke-width="0.758694" stroke-miterlimit="10"/>
<path d="M42.3555 44.828C42.3555 41.3181 44.8864 38.4548 48.0155 38.4548C51.1446 38.4548 52.249 39.9326 53.1694 42.1032C52.157 42.1032 51.3747 42.7959 51.3747 43.6272C51.3747 44.4585 52.203 45.1513 53.2614 45.1513C54.3198 45.1513 53.5835 45.1512 53.7216 45.1051C53.5835 48.4764 51.0986 51.1088 48.0615 51.1088C45.0244 51.1088 42.4015 48.2455 42.4015 44.7356L42.3555 44.828Z" fill="#211815"/>
<path d="M55.1023 43.3504C55.1023 43.3504 51.1909 44.6435 47.6016 44.5049C44.0123 44.3664 39.5947 43.3504 39.5947 43.3504C40.5151 39.2863 43.6442 36.2383 47.3715 36.2383C51.0989 36.2383 54.228 39.2401 55.1483 43.3504H55.1023Z" fill="#6387D2"/>
<path d="M30.0234 59.4677C31.8641 59.0521 35.0393 58.6365 38.8126 59.4677C41.4816 60.0681 43.5523 61.0841 44.9788 61.9154" stroke="#211815" stroke-width="0.758694" stroke-miterlimit="10"/>
<path d="M18.0136 66.3489C8.12002 71.7984 3.56436 75.9548 4.25461 78.7719C5.26698 82.836 17.1393 84.129 39.9175 82.7436" stroke="#030000" stroke-width="0.758694" stroke-miterlimit="10"/>
<path d="M51.7452 65.4717C60.9485 72.0296 65.044 76.6478 64.0316 79.3725C62.6051 83.298 50.6408 83.2518 28.1387 79.2802" stroke="#030000" stroke-width="0.758694" stroke-miterlimit="10"/>
<path d="M28.8275 80.2498C30.254 78.3563 30.392 76.001 29.0575 74.985C27.7231 73.969 25.5143 74.6617 24.0417 76.5552C22.6152 78.4487 22.4772 80.8039 23.8116 81.8199C25.1461 82.836 27.3549 82.1432 28.8275 80.2498Z" fill="#030000"/>
<path d="M38.5837 83.2517C37.1572 81.3583 37.0192 79.0029 38.3536 77.9869C39.6881 76.9709 41.8969 77.6637 43.3694 79.5571C44.796 81.4506 44.934 83.8059 43.5995 84.8219C42.265 85.8379 40.0563 85.1452 38.5837 83.2517Z" fill="#030000"/>
</svg>
