<svg width="94" height="141" viewBox="0 0 94 141" fill="none" xmlns="http://www.w3.org/2000/svg">
<path d="M11.2475 59.0765C16.166 59.0765 20.1532 52.9616 20.1532 45.4185C20.1532 37.8754 16.166 31.7605 11.2475 31.7605C6.32902 31.7605 2.3418 37.8754 2.3418 45.4185C2.3418 52.9616 6.32902 59.0765 11.2475 59.0765Z" fill="#BBD8AB"/>
<path d="M14.5346 59.0765C19.4531 59.0765 23.4403 52.9616 23.4403 45.4185C23.4403 37.8754 19.4531 31.7605 14.5346 31.7605C9.61613 31.7605 5.62891 37.8754 5.62891 45.4185C5.62891 52.9616 9.61613 59.0765 14.5346 59.0765Z" stroke="#030000" stroke-width="0.950021" stroke-miterlimit="10"/>
<path d="M83.9275 38.6492C86.9757 37.3912 88.47 33.9767 87.5136 30.8617C83.3298 17.5631 74.2448 7.19982 62.769 4.14474C39.6381 -1.96541 9.03611 11.0336 15.9694 42.6028C19.9142 60.454 23.7394 66.3845 38.9209 82.8579C54.1024 99.3314 51.7714 104.064 48.7231 108.616C46.4519 112.031 40.6542 112.33 37.068 111.432C31.7485 110.054 27.2658 105.142 25.1739 98.2531C23.8589 93.8801 18.4199 92.3826 14.9533 95.3777C11.4866 98.3729 6.82458 102.446 2.76024 105.921C-1.3041 109.395 0.0706066 110.414 0.967151 112.87C3.17863 119.04 8.25909 129.463 19.3165 135.753C38.3232 146.655 64.9805 139.587 74.4241 123.592C84.8838 105.921 73.4678 79.1439 59.9598 66.025C52.2496 58.5371 43.822 55.4221 41.491 45.4183C39.3991 36.5525 43.2841 26.9081 47.3485 25.2907C59.5415 20.4984 61.9323 30.3226 62.2909 38.4694C62.6495 46.6163 67.0126 45.7777 71.077 44.0405C75.1413 42.3033 79.6241 40.4463 83.8677 38.6492H83.9275Z" fill="#84BD7F"/>
<path d="M89.1266 36.9719C92.1749 35.7139 93.6691 32.2994 92.7128 29.1845C88.5289 15.8859 79.444 5.52258 67.9682 2.4675C44.8374 -3.64266 14.2353 9.3564 21.1685 40.9255C25.1133 58.7768 28.9386 64.7072 44.1201 81.1807C59.3016 97.6541 56.9706 102.386 53.9223 106.939C51.6511 110.354 45.8534 110.653 42.2673 109.755C36.9478 108.377 32.465 103.465 30.3731 96.5759C29.0581 92.2029 23.6191 90.7053 20.1525 93.7005C16.6858 96.6957 12.0238 100.769 7.95946 104.244C3.89512 107.718 5.26983 108.736 6.16637 111.192C8.37785 117.362 13.4582 127.786 24.5156 134.075C43.5224 144.978 70.1797 137.909 79.6233 121.915C90.083 104.244 78.6669 77.4667 65.159 64.3478C57.4487 56.8599 49.0212 53.7449 46.6902 43.741C44.5982 34.8753 48.4833 25.2308 52.5476 23.6134C64.7406 18.8212 67.1314 28.6453 67.49 36.7922C67.8486 44.9391 72.2118 44.1004 76.2761 42.3632C80.3405 40.626 84.8232 38.769 89.0669 36.9719H89.1266Z" stroke="#030000" stroke-width="0.950021" stroke-miterlimit="10"/>
<path d="M21.5884 62.9103C25.8797 62.9103 29.3585 58.6996 29.3585 53.5054C29.3585 48.3113 25.8797 44.1006 21.5884 44.1006C17.2971 44.1006 13.8184 48.3113 13.8184 53.5054C13.8184 58.6996 17.2971 62.9103 21.5884 62.9103Z" fill="white" stroke="#211815" stroke-width="0.950021" stroke-miterlimit="10"/>
<path d="M17.1064 52.4269C17.1064 49.1322 19.4375 46.4365 22.2467 46.4365C25.0559 46.4365 26.0719 47.8742 26.9087 49.9109C26.0121 49.9109 25.2949 50.5699 25.2949 51.3486C25.2949 52.1274 26.072 52.7863 27.0283 52.7863C27.9846 52.7863 27.3271 52.7863 27.4466 52.7863C27.3271 55.9612 25.0559 58.4771 22.3064 58.4771C19.557 58.4771 17.1663 55.7815 17.1663 52.4868L17.1064 52.4269Z" fill="#211815"/>
<path d="M28.6408 51.049H14.5352C15.3719 47.2152 18.1811 44.3398 21.5879 44.3398C24.9948 44.3398 27.804 47.1553 28.6408 51.049Z" fill="#7FB57B"/>
<path d="M35.1558 62.9103C39.4471 62.9103 42.9259 58.6996 42.9259 53.5054C42.9259 48.3113 39.4471 44.1006 35.1558 44.1006C30.8645 44.1006 27.3857 48.3113 27.3857 53.5054C27.3857 58.6996 30.8645 62.9103 35.1558 62.9103Z" fill="white" stroke="#211815" stroke-width="0.950021" stroke-miterlimit="10"/>
<path d="M30.6143 52.4269C30.6143 49.1322 32.9453 46.4365 35.7544 46.4365C38.5636 46.4365 39.5796 47.8742 40.4164 49.9109C39.5199 49.9109 38.8027 50.5699 38.8027 51.3486C38.8027 52.1274 39.5797 52.7863 40.536 52.7863C41.4923 52.7863 40.8348 52.7863 40.9544 52.7863C40.8348 55.9612 38.5636 58.4771 35.8142 58.4771C33.0648 58.4771 30.674 55.7815 30.674 52.4868L30.6143 52.4269Z" fill="#211815"/>
<path d="M42.2082 51.049H28.1025C28.9393 47.2152 31.7485 44.3398 35.1554 44.3398C38.5623 44.3398 41.3714 47.1553 42.2082 51.049Z" fill="#7FB57B"/>
<path d="M34.9756 65.8453C36.171 67.4028 40.056 67.8221 42.3273 65.7255C44.5985 63.6289 45.4353 60.6936 45.0169 58.0579" stroke="#030000" stroke-width="0.950021" stroke-miterlimit="10"/>
<path d="M9.87226 33.7973C10.5895 32.4195 15.909 22.2359 27.3848 20.0794C35.1548 18.6417 45.7939 20.7982 50.3364 28.7654C52.4881 32.4794 52.6076 36.3731 52.4283 38.7094C54.4605 38.1103 56.4328 37.4514 58.465 36.8523C58.6443 34.576 59.0627 25.8301 53.0857 19.1209C45.1962 10.375 30.9112 10.375 21.5273 16.2455C12.801 21.7567 10.3504 31.1615 9.8125 33.7374L9.87226 33.7973Z" fill="#BBD8AB"/>
<path d="M57.0901 68.0019C62.4707 68.0019 66.8326 61.0287 66.8326 52.427C66.8326 43.8252 62.4707 36.8521 57.0901 36.8521C51.7095 36.8521 47.3477 43.8252 47.3477 52.427C47.3477 61.0287 51.7095 68.0019 57.0901 68.0019Z" fill="#BBD8AB"/>
<path d="M60.0803 66.6239C65.4609 66.6239 69.8228 59.6508 69.8228 51.049C69.8228 42.4472 65.4609 35.4741 60.0803 35.4741C54.6997 35.4741 50.3379 42.4472 50.3379 51.049C50.3379 59.6508 54.6997 66.6239 60.0803 66.6239Z" stroke="#030000" stroke-width="0.950021" stroke-miterlimit="10"/>
<path d="M9.87207 33.7973C9.99161 32.6591 11.0077 23.5538 20.7502 18.3422C27.9823 14.5084 38.5017 13.6098 46.6902 18.3422C53.3844 22.2359 56.9706 30.3828 56.074 37.3316" stroke="#030000" stroke-width="0.950021" stroke-miterlimit="10"/>
</svg>
