<svg width="126" height="141" viewBox="0 0 126 141" fill="none" xmlns="http://www.w3.org/2000/svg">
<path d="M95.7596 28.3732C88.3824 23.4204 79.6153 24.379 74.5368 24.9116C44.8676 28.0537 29.9529 60.8059 28.1887 64.6936C18.1387 87.5403 15.8934 125.192 36.3144 137.228C50.3738 145.536 70.2067 138.666 81.7002 130.624C115.699 106.872 118.64 43.6576 95.7596 28.3732ZM71.169 107.032C67.2131 111.559 60.3705 115.446 55.5058 110.76C48.4493 103.996 49.2512 82.7472 52.726 69.8594C53.314 67.6226 58.4994 49.1962 68.7099 47.3855C70.474 47.0659 73.4677 46.5334 76.0336 49.3559C83.9454 57.9834 82.9297 93.6647 71.169 107.032Z" fill="#53ACDE"/>
<path d="M97.8446 23.3673C90.4674 18.4145 81.7003 19.3732 76.6218 19.9057C46.9526 23.0478 32.0378 55.8 30.2737 59.6877C20.2236 82.5344 17.9784 120.186 38.3993 132.222C52.4588 140.53 72.2917 133.66 83.7851 125.618C117.784 101.866 120.725 38.6517 97.8446 23.3673ZM73.2539 102.026C69.298 106.553 62.4554 110.44 57.5907 105.754C50.5343 98.9904 51.3361 77.7414 54.8109 64.8535C55.3989 62.6168 60.5844 44.1903 70.7948 42.3796C72.559 42.0601 75.5526 41.5275 78.1186 44.3501C86.0304 52.9775 85.0147 88.6588 73.2539 102.026Z" stroke="#030000" stroke-width="0.758694" stroke-miterlimit="10"/>
<path d="M97.3626 60.1137C102.913 60.1137 107.413 55.4642 107.413 49.7289C107.413 43.9935 102.913 39.344 97.3626 39.344C91.8121 39.344 87.3125 43.9935 87.3125 49.7289C87.3125 55.4642 91.8121 60.1137 97.3626 60.1137Z" fill="white" stroke="#211815" stroke-width="0.758694" stroke-miterlimit="10"/>
<path d="M91.4822 48.5571C91.4822 44.9357 94.4758 41.9534 98.1644 41.9534C101.853 41.9534 103.189 43.4978 104.205 45.7345C103.029 45.7345 102.067 46.4801 102.067 47.3322C102.067 48.1843 103.083 48.9299 104.259 48.9299C105.435 48.9299 104.633 48.9299 104.793 48.9299C104.633 52.3915 101.693 55.214 98.111 55.214C94.5293 55.214 91.4287 52.2317 91.4287 48.6103L91.4822 48.5571Z" fill="#211815"/>
<path d="M106.505 47.0131H88.1689C89.2381 42.7526 92.9267 39.6638 97.3637 39.6638C101.801 39.6638 105.931 42.7928 107 47L106.505 47.0131Z" fill="#53ACDE"/>
<path d="M114.95 60.1137C120.501 60.1137 125.001 55.4642 125.001 49.7289C125.001 43.9935 120.501 39.344 114.95 39.344C109.4 39.344 104.9 43.9935 104.9 49.7289C104.9 55.4642 109.4 60.1137 114.95 60.1137Z" fill="white" stroke="#211815" stroke-width="0.758694" stroke-miterlimit="10"/>
<path d="M109.072 48.5571C109.072 44.9357 112.066 41.9534 115.754 41.9534C119.443 41.9534 120.779 43.4978 121.795 45.7345C120.619 45.7345 119.657 46.4801 119.657 47.3322C119.657 48.1843 120.672 48.9299 121.848 48.9299C123.025 48.9299 122.223 48.9299 122.383 48.9299C122.223 52.3915 119.282 55.214 115.701 55.214C112.119 55.214 109.019 52.2317 109.019 48.6103L109.072 48.5571Z" fill="#211815"/>
<path d="M124.093 47.0131H105.657C106.726 42.7526 110.514 39.6638 114.951 39.6638C119.388 39.6638 123.077 42.8059 124.146 47.0131H124.093Z" fill="#53ACDE"/>
<path d="M91.8027 64.001H107.412" stroke="#030000" stroke-width="0.758694" stroke-miterlimit="10"/>
<path d="M85.0685 4.30151C73.2543 4.30151 63.6318 7.86966 63.6318 12.2366C63.6318 16.6036 73.2543 20.1717 85.0685 20.1717C96.8827 20.1717 106.505 16.6036 106.505 12.2366C106.505 7.86966 96.8827 4.30151 85.0685 4.30151ZM85.6031 15.8048C79.6692 15.8048 74.9115 14.0473 74.9115 11.8638C74.9115 9.68034 79.7227 7.92289 85.6031 7.92289C91.4835 7.92289 96.2947 9.68034 96.2947 11.8638C96.2947 14.0473 91.4835 15.8048 85.6031 15.8048Z" fill="#94DDFF"/>
<path d="M85.0685 16.8702C96.9076 16.8702 106.505 13.3175 106.505 8.93511C106.505 4.55268 96.9076 1 85.0685 1C73.2294 1 63.6318 4.55268 63.6318 8.93511C63.6318 13.3175 73.2294 16.8702 85.0685 16.8702Z" stroke="#030000" stroke-width="0.758694" stroke-miterlimit="10"/>
<path d="M35.5492 51.9839C33.892 50.0135 28.3324 43.9423 19.5118 43.0902C12.3485 42.4512 2.56565 45.2204 1.17574 50.9721C0.373875 54.3272 2.40528 59.0669 5.45238 59.919C7.69762 60.5581 10.1567 59.1202 10.5309 58.9072C10.7447 58.8007 10.9051 58.7474 10.9585 58.8006C11.5466 59.1734 10.1567 61.8362 11.1724 62.9546C11.9742 63.8599 14.2729 63.4339 15.7163 62.5285C16.732 61.9427 17.32 61.0906 17.5339 61.1972C17.7477 61.3569 16.8924 62.422 17.1062 63.7534C17.2666 64.6055 17.8012 65.3511 18.2288 65.6174C20.4741 67.215 27.7444 62.4753 32.4487 56.4574C33.8386 54.6999 34.8543 53.1023 35.4423 51.9307L35.5492 51.9839Z" fill="#94DDFF"/>
<path d="M35.3604 49.6692C33.7032 47.6987 28.3324 41.9423 19.5118 41.0902C12.3485 40.4512 2.56565 43.2204 1.17574 48.9721C0.373875 52.3272 2.40528 57.0669 5.45238 57.919C7.69762 58.5581 10.1567 57.1202 10.5309 56.9072C10.7447 56.8007 10.9051 56.7474 10.9585 56.8006C11.5466 57.1734 10.1567 59.8362 11.1724 60.9546C11.9742 61.8599 14.2729 61.4339 15.7163 60.5285C16.732 59.9427 17.32 59.0906 17.5339 59.1972C17.7477 59.3569 16.8924 60.422 17.1062 61.7534C17.2666 62.6055 17.8012 63.3511 18.2288 63.6174C20.4741 65.215 27.7444 60.4753 32.4487 54.4574C33.8386 52.6999 34.8543 51.1023 35.4423 49.9307L35.3604 49.6692Z" stroke="#030000" stroke-width="0.758694" stroke-miterlimit="10"/>
</svg>
