<svg width="136" height="141" viewBox="0 0 136 141" fill="none" xmlns="http://www.w3.org/2000/svg">
<path d="M35.994 23.7865C43.3166 21.9043 50.683 20.0222 58.0055 18.14C65.3281 16.2578 64.1442 20.066 63.5742 23.305C59.6279 44.6217 55.9008 71.2785 57.3039 91.8949C57.8301 100.036 59.2332 107.915 63.6619 109.403C67.6958 110.76 72.5629 106.208 74.3168 104.589C89.1812 90.8006 83.4371 35.2546 80.6309 13.3251C80.3678 11.2679 81.5517 9.25437 83.5248 8.55403C90.8913 5.79643 98.3015 3.03887 105.668 0.281267C108.518 -0.769248 111.587 1.24423 111.763 4.26446C112.815 24.6182 112.245 41.5578 111.412 53.9013C108.781 93.0768 102.467 103.319 98.9592 108.134C95.5391 112.818 83.9195 128.882 64.9334 129.67C54.4539 130.107 42.1327 125.862 34.9855 116.494C29.5484 109.36 28.7591 101.568 28.3645 96.2283C26.5667 71.2348 29.6799 45.4096 32.7054 27.3758C33.0124 25.6249 34.2839 24.1805 36.0378 23.7428L35.994 23.7865Z" fill="#C354D3"/>
<path d="M39.6346 25.8879C46.9572 24.0057 54.3236 22.1235 61.6461 20.2414C68.9687 18.3592 67.7848 22.1673 67.2148 25.4064C63.2685 46.7231 59.5415 73.3799 60.9446 93.9963C61.4707 102.138 62.8739 110.017 67.3025 111.505C71.3365 112.862 76.2036 108.31 77.9575 106.69C92.8218 92.902 87.0778 37.356 84.2715 15.4265C84.0084 13.3692 85.1923 11.3557 87.1655 10.6554C94.5319 7.8978 101.942 5.14019 109.309 2.38259C112.159 1.33207 115.228 3.34555 115.403 6.36578C116.456 26.7195 115.886 43.6591 115.053 56.0026C112.422 95.1781 106.108 105.421 102.6 110.235C99.1797 114.919 87.5601 130.983 68.5741 131.771C58.0945 132.209 45.7733 127.963 38.6261 118.596C33.189 111.461 32.3998 103.67 32.0051 98.3296C30.2074 73.3361 33.3206 47.511 36.346 29.4771C36.653 27.7263 37.9246 26.2818 39.6785 25.8441L39.6346 25.8879Z" stroke="#030000" stroke-width="0.758694" stroke-miterlimit="10"/>
<path d="M48.6661 79.5077C54.9382 79.5077 60.0226 75.0983 60.0226 69.6591C60.0226 64.2199 54.9382 59.8105 48.6661 59.8105C42.3941 59.8105 37.3096 64.2199 37.3096 69.6591C37.3096 75.0983 42.3941 79.5077 48.6661 79.5077Z" fill="white" stroke="#211815" stroke-width="1.13804" stroke-miterlimit="10"/>
<path d="M38.5371 72.2855C38.5371 74.9556 41.0803 77.1441 44.1935 77.1441C47.3066 77.1441 48.4467 76.006 49.3236 74.3427C48.3151 74.3427 47.5259 73.8175 47.5259 73.1609C47.5259 72.5043 48.359 71.9791 49.4113 71.9791C50.4637 71.9791 49.7183 71.9791 49.8498 71.9791C49.7183 69.4403 47.2189 67.3831 44.1935 67.3831C41.168 67.3831 38.5371 69.5716 38.5371 72.2417V72.2855Z" fill="#211815"/>
<path d="M68.5743 79.5077C74.8464 79.5077 79.9309 75.0983 79.9309 69.6591C79.9309 64.2199 74.8464 59.8105 68.5743 59.8105C62.3023 59.8105 57.2178 64.2199 57.2178 69.6591C57.2178 75.0983 62.3023 79.5077 68.5743 79.5077Z" fill="white" stroke="#211815" stroke-width="1.13804" stroke-miterlimit="10"/>
<path d="M57.1299 72.6355C57.1299 75.3056 59.673 77.4942 62.7862 77.4942C65.8994 77.4942 67.0395 76.3561 67.9164 74.6928C66.9079 74.6928 66.1187 74.1675 66.1187 73.511C66.1187 72.8544 66.9518 72.3292 68.0041 72.3292C69.0565 72.3292 68.311 72.3292 68.4426 72.3292C68.311 69.7904 65.8117 67.7332 62.7862 67.7332C59.7607 67.7332 57.1299 69.9217 57.1299 72.5918V72.6355Z" fill="#211815"/>
<path d="M47.1764 87.9118C48.711 85.1542 52.8766 83.272 58.7521 82.703C68.1794 81.7838 70.8541 84.0161 71.2926 85.1104C71.6872 86.1609 70.1525 88.3057 67.8724 88.437C64.4085 88.6121 63.6631 86.5111 59.1029 87.2552C54.7181 87.9993 52.2627 90.4505 49.7634 90.2754C47.7902 90.1441 46.3433 89.3125 47.1325 87.868L47.1764 87.9118Z" fill="white" stroke="#211815" stroke-width="1.13804" stroke-miterlimit="10"/>
<path d="M31.2149 77.5819C25.9532 77.1004 11.2204 76.3125 3.76631 84.454C2.75782 85.5482 0.52159 87.9994 1.09161 90.4069C1.79317 93.2958 6.22178 95.3969 12.4043 95.4844" stroke="#030000" stroke-width="0.758694" stroke-miterlimit="10"/>
<path d="M24.9011 18.928C22.3579 19.322 18.4555 20.3287 14.7723 23.2614C14.1584 23.7867 7.23051 29.4769 7.31821 37.7935C7.31821 38.4501 7.44975 42.7397 9.11596 44.4468L15.43 136.454L20.034 136.148L13.72 43.834C14.7285 43.0023 15.5616 41.9956 16.0439 41.2952C17.8416 38.7565 18.017 36.0865 18.017 34.8609C16.7893 35.7363 15.5616 36.6555 14.3338 37.5309C14.3777 35.9551 14.5969 34.1167 15.1669 32.147C17.2278 24.8809 22.4895 20.6351 24.945 18.8843L24.9011 18.928Z" fill="#D26CD0"/>
<path d="M23.6296 22.4732C21.0865 22.8671 17.184 23.8739 13.5008 26.8066C12.887 27.3318 5.95903 33.0221 6.04672 41.3387C6.04672 41.9953 6.17827 46.2849 7.84448 47.992L14.1585 140L18.7625 139.693L12.4485 47.3792C13.457 46.5475 14.2901 45.5408 14.7724 44.8404C16.5702 42.3017 16.7456 39.6316 16.7456 38.406C15.5178 39.2815 14.2901 40.2006 13.0623 41.0761C13.1062 39.5003 13.3254 37.6619 13.8955 35.6922C15.9563 28.4261 21.218 24.1803 23.6735 22.4294L23.6296 22.4732Z" stroke="#030000" stroke-width="0.758694" stroke-miterlimit="10"/>
<path d="M10.2123 94.3902C11.1331 92.3329 13.0185 91.1511 14.4655 91.7639C15.9125 92.3767 16.351 94.5652 15.474 96.6663C14.5532 98.7235 12.6678 99.9054 11.2208 99.2926C9.77381 98.6798 9.33533 96.4912 10.2123 94.3902Z" fill="#030000"/>
<path d="M113.21 70.7532C118.077 72.7229 131.538 78.7633 134.432 89.4873C134.827 90.9318 135.66 94.1271 134.038 96.0093C132.108 98.2854 127.197 98.0665 121.673 95.3527" stroke="#030000" stroke-width="0.758694" stroke-miterlimit="10"/>
<path d="M124.128 95.3094C124.26 93.0771 123.12 91.1511 121.541 91.0198C119.963 90.9323 118.56 92.6394 118.428 94.9155C118.297 97.1478 119.437 99.0738 121.015 99.2051C122.594 99.2927 123.997 97.5856 124.172 95.3094H124.128Z" fill="#030000"/>
</svg>
