<svg width="146" height="141" viewBox="0 0 146 141" fill="none" xmlns="http://www.w3.org/2000/svg">
<path d="M69.8914 6.42323C41.0647 4.13987 22.7071 32.9004 13.0657 56.6085C8.97546 66.665 -7.0935 106.065 14.3318 127.976C24.8983 138.809 44.1324 144.882 61.5161 138.226C75.3938 132.98 82.5031 121.806 85.3761 116.267C86.1552 114.761 85.863 112.915 84.6456 111.749C79.0945 106.308 73.4948 100.867 67.9437 95.4256C65.9959 93.5309 62.7821 94.1624 61.7109 96.6401C57.1823 106.891 51.4365 113.547 47.3462 112.867C42.4281 112.041 38.3865 100.527 39.3117 84.1545C39.4091 82.6971 40.3343 81.3854 41.649 80.8024C47.1027 78.4704 54.3581 76.0413 63.0743 74.7296C72.18 73.3207 80.1658 73.5637 86.3499 74.2438C88.4925 74.4867 90.3915 72.9321 90.635 70.7945C93.9949 35.5239 85.9604 7.58919 69.9888 6.32606L69.8914 6.42323ZM71.2062 53.6936C71.2062 55.0539 70.3297 56.2198 69.0149 56.6085L48.807 62.5355C46.7619 63.1185 44.7654 61.5153 44.9115 59.3777C45.7393 49.3698 51.4852 28.0422 59.0327 26.0018C74.1278 21.8723 71.1574 45.3375 71.1574 53.6936H71.2062Z" fill="#FF7C2B"/>
<path d="M67.4569 1.12782C38.6301 -1.15554 20.2725 27.605 10.6312 51.3131C6.54089 61.3696 -9.52807 100.77 11.8972 122.68C22.4638 133.514 41.6978 139.587 59.0815 132.931C72.9593 127.684 80.0685 116.51 82.9415 110.972C83.7206 109.466 83.4284 107.62 82.2111 106.454C76.66 101.013 71.0602 95.5714 65.5091 90.1302C63.5614 88.2355 60.3476 88.867 59.2763 91.3447C54.7478 101.596 49.0019 108.251 44.9116 107.571C39.9935 106.745 35.952 95.2313 36.8771 78.8591C36.9745 77.4017 37.8997 76.09 39.2144 75.507C44.6682 73.175 51.9235 70.7459 60.6397 69.4342C69.7455 68.0253 77.7312 68.2682 83.9154 68.9484C86.0579 69.1913 87.9569 67.6367 88.2004 65.4991C91.5603 30.2285 83.5258 2.29379 67.5542 1.03065L67.4569 1.12782ZM68.7716 48.3982C68.7716 49.7585 67.8951 50.9244 66.5804 51.3131L46.3724 57.2401C44.3273 57.8231 42.3309 56.2199 42.4769 54.0823C43.3047 44.0744 49.0506 22.7468 56.5981 20.7064C71.6932 16.5769 68.7229 40.0421 68.7229 48.3982H68.7716Z" stroke="#030000" stroke-width="0.87313" stroke-miterlimit="10"/>
<path d="M70.1348 58.406C70.3295 60.0092 72.7155 61.6124 75.2476 62.0497C77.9745 62.5355 82.5517 61.8067 83.3308 59.7663" stroke="#030000" stroke-width="0.87313" stroke-miterlimit="10"/>
<path d="M82.3564 59.1348L84.3529 61.078" stroke="#030000" stroke-width="0.87313" stroke-miterlimit="10"/>
<path d="M68.4316 58.8918L72.3271 58.406" stroke="#030000" stroke-width="0.87313" stroke-miterlimit="10"/>
<path d="M69.4046 55.3455C73.2503 55.3455 76.3678 51.6696 76.3678 47.1352C76.3678 42.6007 73.2503 38.9248 69.4046 38.9248C65.5589 38.9248 62.4414 42.6007 62.4414 47.1352C62.4414 51.6696 65.5589 55.3455 69.4046 55.3455Z" fill="white" stroke="#211815" stroke-width="1.3097" stroke-miterlimit="10"/>
<path d="M64.9736 47.135C64.9736 49.9528 66.9701 52.2847 69.4048 52.2847C71.8395 52.2847 72.716 51.0702 73.4464 49.3212C72.6673 49.3212 72.0342 48.7383 72.0342 48.0581C72.0342 47.378 72.6673 46.795 73.495 46.795C74.3228 46.795 73.7385 46.795 73.8359 46.795C73.7385 44.0744 71.7908 41.9368 69.4048 41.9368C67.0188 41.9368 64.9736 44.2201 64.9736 47.0865V47.135Z" fill="#211815"/>
<path d="M84.3539 54.908C88.1995 54.908 91.3171 51.2321 91.3171 46.6977C91.3171 42.1632 88.1995 38.4873 84.3539 38.4873C80.5082 38.4873 77.3906 42.1632 77.3906 46.6977C77.3906 51.2321 80.5082 54.908 84.3539 54.908Z" fill="white" stroke="#211815" stroke-width="1.3097" stroke-miterlimit="10"/>
<path d="M79.9229 46.6975C79.9229 49.5153 81.9193 51.8472 84.354 51.8472C86.7887 51.8472 87.6652 50.6327 88.3956 48.8837C87.6165 48.8837 86.9835 48.3008 86.9835 47.6206C86.9835 46.9405 87.6165 46.3575 88.4443 46.3575C89.2721 46.3575 88.6877 46.3575 88.7851 46.3575C88.6877 43.6369 86.74 41.4993 84.354 41.4993C81.968 41.4993 79.9229 43.7826 79.9229 46.649V46.6975Z" fill="#211815"/>
<path d="M88.7842 58.6489L101.396 45.7261" stroke="#030000" stroke-width="0.87313" stroke-miterlimit="10"/>
<path d="M103.686 44.9003C103.102 42.4712 101.787 40.6736 100.716 40.9165C99.6445 41.1594 99.255 43.3456 99.7906 45.7747C100.375 48.2038 101.69 50.0014 102.761 49.7585C103.832 49.5156 104.222 47.3294 103.686 44.9003Z" fill="#030000"/>
<path d="M95.8941 91.1505C102.241 91.1505 107.386 88.8014 107.386 85.9036C107.386 83.0058 102.241 80.6567 95.8941 80.6567C89.5474 80.6567 84.4023 83.0058 84.4023 85.9036C84.4023 88.8014 89.5474 91.1505 95.8941 91.1505Z" fill="#FFAC45"/>
<path d="M134.508 79.4906C140.855 79.4906 146 77.1415 146 74.2437C146 71.3459 140.855 68.9968 134.508 68.9968C128.162 68.9968 123.017 71.3459 123.017 74.2437C123.017 77.1415 128.162 79.4906 134.508 79.4906Z" fill="#FFAC45"/>
<path d="M93.898 89.2069C100.245 89.2069 105.39 86.8578 105.39 83.96C105.39 81.0622 100.245 78.7131 93.898 78.7131C87.5513 78.7131 82.4062 81.0622 82.4062 83.96C82.4062 86.8578 87.5513 89.2069 93.898 89.2069Z" stroke="#030000" stroke-width="0.87313" stroke-miterlimit="10"/>
<path d="M132.512 77.5472C138.859 77.5472 144.004 75.1981 144.004 72.3003C144.004 69.4026 138.859 67.0535 132.512 67.0535C126.166 67.0535 121.021 69.4026 121.021 72.3003C121.021 75.1981 126.166 77.5472 132.512 77.5472Z" stroke="#030000" stroke-width="0.87313" stroke-miterlimit="10"/>
<path d="M102.662 49.0293V65.0614" stroke="#030000" stroke-width="0.87313" stroke-miterlimit="10"/>
<path d="M114.691 61.0779L93.2656 68.9968" stroke="#030000" stroke-width="0.87313" stroke-miterlimit="10"/>
<path d="M92.2422 78.7132L93.5569 68.7053" stroke="#030000" stroke-width="0.87313" stroke-miterlimit="10"/>
<path d="M124.136 68.7055L114.202 61.0295" stroke="#030000" stroke-width="0.87313" stroke-miterlimit="10"/>
</svg>
