<svg width="178" height="160" viewBox="0 0 178 160" fill="none" xmlns="http://www.w3.org/2000/svg">
<path d="M16.9676 25.4629L47.3422 9.57131C50.1772 8.08359 53.5522 10.3828 53.2147 13.5611C51.4597 30.9404 51.0547 51.7008 54.0921 74.6929C54.0921 74.8281 54.0921 74.8958 54.0921 75.031C54.6996 79.5618 61.112 79.7646 62.057 75.3015C63.4745 68.8772 65.567 61.8444 68.6719 54.6087C76.9743 35.133 88.8542 22.3522 96.3466 15.4546C103.839 8.55695 98.1016 14.3726 99.1141 14.3726H102.017C104.311 14.3726 106.201 16.3337 106.066 18.6329C105.661 26.5448 105.729 35.2683 106.336 44.5327C107.011 54.7439 108.294 64.2112 109.981 72.9347C111.669 81.6581 117.271 77.3302 117.946 72.7994C119.364 62.994 121.794 52.1742 125.506 40.7458C129.151 29.6555 133.471 20.053 137.724 11.8705C138.399 10.5857 139.748 9.70655 141.233 9.70655C151.426 9.50368 161.618 9.30081 171.811 9.03032C182.003 8.75982 176.805 11.9381 175.658 14.6431C167.288 34.2539 158.986 57.8546 152.708 85.1745C147.983 105.867 145.216 125.005 143.731 141.978C143.596 143.534 142.516 144.954 141.031 145.427C127.599 150.229 114.166 155.03 100.734 159.763C98.439 160.575 95.9416 159.222 95.4016 156.856C92.0266 142.046 89.3942 124.667 88.7192 105.191C88.6517 102.486 88.5842 99.7813 88.5167 97.1439C88.5167 92.5455 82.0368 91.5312 80.6193 95.9267C79.2018 100.322 79.2693 100.525 78.6618 103.027C75.7594 115.605 76.0968 126.56 77.0418 134.134C77.2443 135.825 76.3669 137.515 74.8144 138.259C62.867 144.278 50.9197 150.229 38.9049 156.247C36.6774 157.329 34.0449 156.247 33.2349 153.88C26.6875 133.999 20.5451 109.722 17.1701 81.6581C14.8077 62.2501 14.2677 44.4651 14.6052 28.7764C14.6052 27.2887 15.4827 25.9362 16.7652 25.26L16.9676 25.4629Z" fill="#FFD54F"/>
<path d="M11.4989 17.8894L41.8735 1.99782C44.7085 0.510101 48.0834 2.8093 47.7459 5.98761C45.9909 23.3669 45.5859 44.1274 48.6234 67.1194C48.6234 67.2546 48.6234 67.3223 48.6234 67.4575C49.2309 71.9883 55.6433 72.1912 56.5883 67.728C58.0058 61.3038 60.0982 54.2709 63.2032 47.0352C71.5056 27.5596 83.3854 14.7787 90.8778 7.88108C91.6203 7.20484 92.6328 6.79911 93.6453 6.79911H96.5478C98.8427 6.79911 100.733 8.76018 100.598 11.0594C100.193 18.9714 100.26 27.6948 100.868 36.9592C101.543 47.1704 102.825 56.6377 104.513 65.3612C105.39 69.8243 111.803 69.7567 112.478 65.2259C113.895 55.4205 116.325 44.6007 120.037 33.1723C123.682 22.082 128.002 12.4795 132.255 4.29702C133.189 2.5 134.28 2.13307 135.765 2.13307C145.957 1.9302 156.149 1.72732 166.342 1.45683C176.534 1.18634 171.337 4.36465 170.189 7.0696C161.819 26.6805 153.517 50.2811 147.24 77.6011C142.515 98.2939 139.747 117.431 138.262 134.405C138.127 135.96 137.047 137.38 135.562 137.854C122.13 142.655 108.698 147.456 95.2653 152.19C81.8329 156.924 90.4728 151.649 89.9328 149.282C86.5579 134.473 83.9254 117.093 83.2504 97.6177C83.1829 94.9127 83.1154 92.2078 83.0479 89.5704C83.0479 84.972 76.568 83.9577 75.1505 88.3532C74.408 90.5848 73.8005 92.9516 73.193 95.4537C70.2906 108.032 70.6281 118.987 71.5731 126.561C71.7756 128.251 70.8981 129.942 69.3456 130.686C57.3983 136.704 45.4509 142.655 33.4361 148.674C21.4213 154.692 28.5762 148.674 27.7662 146.307C21.2187 126.425 15.0763 102.148 11.7014 74.0846C9.33891 54.6767 8.79893 36.8916 9.13643 21.2029C9.13643 19.7152 10.0139 18.3627 11.2964 17.6865L11.4989 17.8894Z" stroke="#030000" stroke-width="1.3016" stroke-miterlimit="10"/>
<path d="M67.6581 59.2747C66.3756 65.0227 69.2106 69.8239 72.2481 70.5678C75.488 71.3117 80.6855 67.7276 81.3605 61.1681" stroke="#030000" stroke-width="1.3016" stroke-miterlimit="10"/>
<path d="M88.245 61.3711C86.9625 67.1191 89.7975 71.9204 92.835 72.6642C96.075 73.4081 101.272 69.8241 101.947 63.2646" stroke="#030000" stroke-width="1.3016" stroke-miterlimit="10"/>
<path d="M63.6074 72.2588C64.3499 75.5723 71.9098 78.9535 79.8747 80.1708C88.3796 81.4556 102.419 80.5089 104.579 76.3838" stroke="#030000" stroke-width="1.3016" stroke-miterlimit="10"/>
<path d="M54.5184 70.4962L30.2016 75.897C26.3801 76.7458 23.969 80.5375 24.8162 84.366L32.0771 117.178C32.9243 121.007 36.7091 123.422 40.5305 122.574L64.8473 117.173C68.6688 116.324 71.0799 112.532 70.2327 108.704L62.9718 75.8915C62.1246 72.063 58.3399 69.6474 54.5184 70.4962Z" fill="#FBF1C3"/>
<path d="M49.6837 68.4565L24.642 74.0184C20.7478 74.8833 18.2907 78.7472 19.154 82.6487L26.6195 116.385C27.4828 120.287 31.3396 122.748 35.2339 121.883L60.2756 116.322C64.1698 115.457 66.6269 111.593 65.7636 107.691L58.2981 73.9546C57.4348 70.0532 53.578 67.5916 49.6837 68.4565Z" stroke="#030000" stroke-width="1.3016" stroke-miterlimit="10"/>
<path d="M126.585 80.7117C127.665 91.261 124.088 96.4004 122.603 98.1586C114.098 108.37 91.5531 108.437 69.2109 93.5602" stroke="#030000" stroke-width="1.3016" stroke-miterlimit="10"/>
<path d="M12.4437 78.4797C4.61382 82.8076 -1.05608 93.2893 1.71138 98.1582C4.20885 102.486 19.8011 103.027 20.5436 103.095" stroke="#030000" stroke-width="1.3016" stroke-miterlimit="10"/>
<path d="M25.2025 101.066C24.3925 97.6853 21.6925 95.3861 19.1276 95.9947C16.5626 96.6033 15.0776 99.8493 15.8876 103.23C16.6976 106.612 19.3976 108.911 21.9625 108.302C24.5275 107.694 26.0125 104.448 25.2025 101.066Z" fill="#030000"/>
<path d="M61.3124 90.9903C62.1224 87.6091 64.8224 85.3099 67.3873 85.9185C69.9523 86.5272 71.4373 89.7731 70.6273 93.1543C69.8173 96.5354 67.1173 98.8346 64.5524 98.226C61.9874 97.6174 60.5024 94.3715 61.3124 90.9903Z" fill="#030000"/>
<path d="M27.834 89.2322L52.5387 84.6338" stroke="#030000" stroke-width="1.3016" stroke-miterlimit="10"/>
<path d="M28.915 95.3184L53.6872 90.72" stroke="#030000" stroke-width="1.3016" stroke-miterlimit="10"/>
<path d="M31.749 104.448L56.4537 99.8494" stroke="#030000" stroke-width="1.3016" stroke-miterlimit="10"/>
</svg>
