<svg width="90" height="142" viewBox="0 0 90 142" fill="none" xmlns="http://www.w3.org/2000/svg">
<path d="M70.2679 10.4428V29.2329C70.2679 32.5849 66.36 34.379 63.7705 32.2545C59.6742 28.9025 54.9188 27.3917 50.5401 28.1943C45.5022 29.1385 40.1348 33.3875 38.9577 38.7696C36.0856 51.8 60.7571 58.1262 70.2208 81.4014C76.2004 96.1786 77.1421 120.256 62.4051 132.909C49.5514 143.909 27.4223 143.862 8.77743 131.729C6.98819 130.564 6.98828 129.746 6.98828 128.377V101.938C6.98828 98.728 10.5666 96.8395 13.2033 98.6808C22.667 105.29 31.4715 106.99 35.5677 103.544C40.0406 99.8139 38.581 90.23 36.6035 84.5646C32.366 72.4785 23.279 71.4398 16.8757 62.2808C7.31786 48.5423 6.98826 21.0654 23.6557 8.08228C35.2852 -0.982293 52.9414 -1.31277 68.1963 6.902C69.4675 7.61017 70.2679 8.93204 70.2679 10.3956V10.4428Z" fill="#FC8EC0"/>
<path d="M65.7015 10.4428V29.2329C65.7015 32.5849 61.7936 34.379 59.2041 32.2545C55.1078 28.9025 50.3524 27.3917 45.9737 28.1943C40.9358 29.1385 35.5684 33.3875 34.3913 38.7696C31.5192 51.8 56.1907 58.1262 65.6544 81.4014C71.634 96.1786 72.5757 120.256 57.8387 132.909C44.985 143.909 22.8559 143.862 4.21103 131.729C3.08103 131.021 2.42188 129.746 2.42188 128.377V101.938C2.42188 98.728 6.00019 96.8395 8.63685 98.6808C18.1005 105.29 26.9051 106.99 31.0013 103.544C35.4742 99.8139 34.0146 90.23 32.0371 84.5646C27.7997 72.4785 18.7126 71.4398 12.3093 62.2808C2.75146 48.5423 2.42189 21.0654 19.0893 8.08228C30.7188 -0.982293 48.375 -1.31277 63.6299 6.902C64.9011 7.61017 65.7015 8.93204 65.7015 10.3956V10.4428Z" stroke="#030000" stroke-width="0.758694" stroke-miterlimit="10"/>
<path d="M23.9853 63.6027C23.7028 63.4611 23.4674 63.8388 23.7028 64.0748C25.2566 65.4912 28.3169 67.7101 32.6957 67.9933C37.8748 68.3238 41.6415 65.7744 43.4777 64.1692C45.3139 62.564 43.4777 63.6027 43.1952 63.6971C41.5002 64.4525 39.2873 65.1607 36.6507 65.4912C31.1419 66.1993 26.622 64.7358 23.9853 63.6027Z" fill="#030000"/>
<path d="M68.9498 63.7919C69.2323 63.6503 69.4677 64.028 69.2323 64.264C67.6785 65.6804 64.6181 67.8993 60.2394 68.1825C55.0603 68.513 51.2936 65.9636 49.4574 64.3584C47.6212 62.7533 49.4574 63.7919 49.7399 63.8863C51.4349 64.6417 53.6478 65.3499 56.2844 65.6804C61.7932 66.3886 66.3131 64.925 68.9498 63.7919Z" fill="#030000"/>
<path d="M42.3477 59.637C42.4889 59.8258 42.7714 59.637 42.6772 59.4009C42.1123 57.9374 40.7939 55.4351 37.9689 53.83C34.626 51.9415 31.2831 52.5081 29.494 52.9802C27.7048 53.4523 29.3057 53.3579 29.494 53.4051C30.9065 53.4051 32.6015 53.6411 34.4377 54.2549C38.3456 55.5296 40.8881 57.9846 42.2535 59.637H42.3477Z" fill="#030000"/>
<path d="M50.212 58.3623C50.0707 58.5511 49.7882 58.3623 49.8353 58.1734C50.2591 56.6154 51.2949 54.0188 53.9315 52.1303C57.039 49.9114 60.4761 50.0531 62.2652 50.3835C64.0544 50.714 62.5006 50.7612 62.2652 50.8085C60.8998 50.9973 59.2048 51.3749 57.4157 52.1775C53.6961 53.8771 51.389 56.5682 50.212 58.3623Z" fill="#030000"/>
<path d="M60.3813 78.7578C60.7109 78.8994 60.9934 78.5217 60.7109 78.2857C58.7805 76.8693 54.6372 73.7062 49.3639 73.4701C43.0547 73.1397 38.8643 76.6333 36.6514 78.2385C34.4385 79.8437 36.6514 78.805 36.981 78.7106C39.0527 77.9552 43.196 75.5946 47.8101 75.4058C54.4959 75.1225 57.1796 77.6247 60.3813 78.805V78.7578Z" fill="#030000"/>
<path d="M65.5127 81.0235C73.8935 79.8432 78.7431 80.8346 82.1801 82.8647C87.2651 85.8862 88.6305 88.2468 88.9601 91.4572C89.4309 96.6032 85.7113 98.6805 79.6847 101.277" stroke="#030000" stroke-width="0.758694" stroke-miterlimit="10"/>
<path d="M85.0059 100.569C84.3938 97.3589 82.228 95.0456 80.1093 95.4705C78.0376 95.8482 76.8134 98.7753 77.4255 102.033C78.0376 105.243 80.2034 107.557 82.3222 107.132C84.3938 106.754 85.618 103.827 85.0059 100.569Z" fill="#030000"/>
<path d="M31.8477 83.1482C23.7023 85.4615 19.6532 88.2942 17.3461 91.5518C13.909 96.3673 13.5794 99.0584 14.5682 102.174C16.169 107.084 20.4065 107.462 26.9981 107.415" stroke="#030000" stroke-width="0.758694" stroke-miterlimit="10"/>
<path d="M21.866 108.878C21.1127 105.668 22.2427 102.694 24.3143 102.222C26.386 101.75 28.646 103.921 29.3993 107.132C30.1526 110.342 29.0226 113.316 26.951 113.788C24.8793 114.261 22.6193 112.089 21.866 108.878Z" fill="#030000"/>
</svg>
