<svg width="48" height="49" viewBox="0 0 48 49" fill="none" xmlns="http://www.w3.org/2000/svg">
<path d="M40.4043 39.8704C40.4043 39.3311 40.5932 38.8688 40.9711 38.4836C41.349 38.0984 41.8025 37.9058 42.3315 37.9058H46.0725C46.6015 37.9058 47.055 38.0984 47.4329 38.4836C47.8107 38.8688 47.9997 39.3311 47.9997 39.8704V42.5284C47.9997 43.0677 47.8107 43.53 47.4329 43.9152C47.055 44.3004 46.6015 44.493 46.0725 44.493H42.3315C41.8025 44.493 41.349 44.3004 40.9711 43.9152C40.5932 43.53 40.4043 43.0677 40.4043 42.5284V39.8704Z" fill="#C6A4FF"/>
<path d="M30.8917 45.8797C31.1184 46.2649 31.2318 46.6309 31.2318 46.9776C31.2318 47.6325 30.835 48.114 30.0415 48.4222L28.9645 48.8267C28.7 48.9422 28.4166 49 28.1143 49C27.4719 49 26.9428 48.634 26.5272 47.9021L24.2032 43.9151C22.3516 44.6855 20.3488 45.0708 18.1949 45.0708C14.4917 45.0708 11.2797 44.1848 8.55898 42.4127C5.83825 40.6407 3.72212 38.1753 2.2106 35.0165C0.736866 31.8577 0 28.1981 0 24.0377C0 20.8019 0.434562 17.7394 1.30369 14.8502C2.2106 11.9226 3.43871 9.36085 4.98802 7.1651C6.57511 4.93082 8.42673 3.17807 10.5429 1.90684C12.659 0.635613 14.9641 0 17.4581 0C20.9346 0 23.9765 1.02083 26.5839 3.0625C29.1912 5.06565 31.2129 7.81997 32.6488 11.3255C34.0848 14.831 34.8028 18.818 34.8028 23.2866C34.8028 27.2543 34.217 30.7984 33.0456 33.9186C31.912 37.0004 30.306 39.4851 28.2276 41.3726L30.8917 45.8797ZM27.5475 23.2866C27.5475 20.5515 27.2829 17.9898 26.7539 15.6014C26.2249 13.2131 25.488 11.1136 24.5433 9.30307C23.5986 7.45401 22.5217 6.0287 21.3124 5.02712C20.1032 3.98703 18.8184 3.46698 17.4581 3.46698C16.2488 3.46698 15.0396 4.06407 13.8304 5.25826C12.6212 6.41392 11.5253 7.99332 10.5429 9.99646C9.56037 11.9611 8.76682 14.1568 8.16221 16.5837C7.5576 19.0106 7.2553 21.4953 7.2553 24.0377C7.2553 27.4662 7.70875 30.5094 8.61567 33.1675C9.56037 35.787 10.8452 37.8479 12.47 39.3502C14.1327 40.8526 16.041 41.6038 18.1949 41.6038C19.5175 41.6038 20.7645 41.1223 21.9359 40.1592L14.6806 27.8514C14.4539 27.4277 14.3405 27.0617 14.3405 26.7535C14.3405 26.0601 14.7373 25.5786 15.5309 25.309L16.6078 24.9045C16.9101 24.7889 17.1935 24.7311 17.4581 24.7311C18.1005 24.7311 18.6295 25.0971 19.0452 25.829L25.0534 35.9988C25.847 34.3424 26.4516 32.4355 26.8673 30.2783C27.3207 28.1211 27.5475 25.7905 27.5475 23.2866Z" fill="#C6A4FF"/>
</svg>
