<svg width="153" height="29" viewBox="0 0 153 29" fill="none" xmlns="http://www.w3.org/2000/svg">
<path d="M144.29 27.9833V19.75H152.456V27.9833H144.29Z" fill="white"/>
<path d="M133.997 5.81665C139.363 5.81665 141.963 8.28332 141.963 12.75V21.4167C141.963 25.8833 139.363 28.35 133.997 28.35H131.18C125.813 28.35 123.213 25.8833 123.213 21.4167V12.75C123.213 8.28332 125.813 5.81665 131.18 5.81665H133.997ZM134.047 21.8833V12.2833H131.13V21.8833H134.047Z" fill="white"/>
<path d="M110.465 27.9999V7.59994H105.048V0.766602H124.115V7.59994H118.698V27.9999H110.465Z" fill="white"/>
<path d="M89.5773 5.81665C94.9439 5.81665 97.5439 8.28332 97.5439 12.75V13.9167H89.6273V11.3167H86.7106V13.9167L91.5439 14.9167C95.3439 15.7 97.5439 17.2833 97.5439 20.9667V21.4167C97.5439 25.8833 94.9439 28.35 89.5773 28.35H86.7606C81.3939 28.35 78.7939 25.8833 78.7939 21.4167V19.9833H86.7106V22.85H89.6273V19.9833L84.7939 18.9833C80.9939 18.2 78.7939 16.6167 78.7939 12.9333V12.75C78.7939 8.28332 81.3939 5.81665 86.7606 5.81665H89.5773Z" fill="white"/>
<path d="M48.7936 28.0001L45.2603 6.16675H53.0269L54.2936 16.5334C54.4769 18.0834 54.7269 20.0334 55.0269 22.4001C55.2936 20.0167 55.4936 18.3501 55.7103 16.5334L56.9936 6.16675H65.6603L66.9269 16.5334C67.1603 18.3501 67.3769 20.0334 67.6103 22.4001C67.9269 20.0501 68.1936 17.9834 68.3603 16.5334L69.6269 6.16675H77.3769L73.8603 28.0001H62.6436L62.1936 22.6167C61.8936 20.2334 61.5603 17.2834 61.3269 14.8167C61.0936 17.2834 60.7436 20.2334 60.4603 22.6167L59.9936 28.0001H48.7936Z" fill="white"/>
<path d="M32.9769 28.35C27.6103 28.35 25.0103 25.8833 25.0103 21.4167V12.75C25.0103 8.28332 27.6103 5.81665 32.9769 5.81665H35.7936C41.1603 5.81665 43.7603 8.28332 43.7603 12.75V18.8833H32.8436V22.6833H35.9269V20.2667H43.7603V21.4167C43.7603 25.8833 41.1603 28.35 35.7936 28.35H32.9769ZM32.8436 14.8H35.9269V11.4833H32.8436V14.8Z" fill="white"/>
<path d="M0.543945 27.9999V0.766602H9.62728L12.1939 7.94993C13.0939 10.1999 13.8106 12.0333 14.5606 14.3833C14.4106 11.9833 14.3439 10.1833 14.3606 8.6666V0.766602H22.1106V27.9999H13.0273L10.4606 20.8166C9.54395 18.5666 8.84395 16.7333 8.09395 14.3833C8.24395 16.7999 8.29395 18.5999 8.29395 20.1166V27.9999H0.543945Z" fill="white"/>
</svg>
