<svg width="18" height="14" viewBox="0 0 18 14" fill="none" xmlns="http://www.w3.org/2000/svg">
<path fill-rule="evenodd" clip-rule="evenodd" d="M9.18654 3.3021C11.6736 3.3022 14.0657 4.22428 15.8682 5.87776C16.0039 6.00542 16.2209 6.00381 16.3545 5.87415L17.652 4.61069C17.7197 4.54493 17.7575 4.45585 17.7569 4.36317C17.7563 4.27049 17.7175 4.18184 17.649 4.11685C12.918 -0.257863 5.4543 -0.257863 0.72329 4.11685C0.654758 4.1818 0.615874 4.27041 0.615242 4.3631C0.61461 4.45578 0.652283 4.54488 0.719923 4.61069L2.01779 5.87415C2.15139 6.004 2.36851 6.00562 2.50416 5.87776C4.3069 4.22418 6.69918 3.30209 9.18654 3.3021ZM9.18318 7.52237C10.5405 7.52229 11.8494 8.03403 12.8555 8.95816C12.9916 9.08931 13.2059 9.08647 13.3386 8.95175L14.6259 7.63244C14.6937 7.56324 14.7313 7.46936 14.7303 7.37181C14.7293 7.27426 14.6898 7.18118 14.6207 7.11339C11.5568 4.22254 6.81211 4.22254 3.74828 7.11339C3.67907 7.18118 3.63959 7.27431 3.63868 7.37189C3.63777 7.46947 3.67552 7.56334 3.74345 7.63244L5.03036 8.95175C5.16302 9.08647 5.37738 9.08931 5.51346 8.95816C6.51892 8.03464 7.82676 7.52294 9.18318 7.52237ZM11.7076 10.3159C11.7095 10.4213 11.6725 10.5228 11.6052 10.5967L9.4285 13.0514C9.3647 13.1235 9.27771 13.1641 9.18694 13.1641C9.09617 13.1641 9.00917 13.1235 8.94537 13.0514L6.76834 10.5967C6.70109 10.5228 6.66409 10.4212 6.66608 10.3158C6.66808 10.2105 6.70889 10.1107 6.77887 10.0401C8.16897 8.72621 10.2049 8.72621 11.595 10.0401C11.6649 10.1108 11.7057 10.2106 11.7076 10.3159Z" fill="black"/>
</svg>
